<svg width="1440" height="901" viewBox="0 0 1440 901" fill="none" xmlns="http://www.w3.org/2000/svg">
<rect x="-65.5422" y="0.0220947" width="1572" height="950.938" fill="#2F307D"/>
<g filter="url(#filter0_f_142:46958)">
<path d="M-57.3718 396.673L744.736 -12.6623L1109.33 -12.6624L1555.52 96.4939L-8.75953 706.598L-57.3718 396.673Z" fill="url(#paint0_linear_142:46958)"/>
</g>
<g filter="url(#filter1_f_142:46958)">
<path d="M-100.65 384.134L800.579 -0.123145L1109.33 -12.6624L1555.53 96.4939L-8.75935 706.598L-100.65 384.134Z" fill="url(#paint1_linear_142:46958)"/>
</g>
<g filter="url(#filter2_f_142:46958)">
<ellipse rx="329.847" ry="107.571" transform="matrix(0.914846 -0.403803 0.330497 0.943807 845.909 310.867)" fill="#E73800"/>
</g>
<g filter="url(#filter3_f_142:46958)">
<path d="M673.921 29.9612C498.975 55.305 280.763 103.881 66.3126 29.9612C55.0257 24.3293 46.3722 30.3836 102.054 99.6566C171.656 186.248 399.275 150.344 673.921 29.9612Z" fill="#4463B1"/>
</g>
<g opacity="0.4" filter="url(#filter4_f_142:46958)">
<path d="M610.209 41.9426C471.455 62.0435 298.385 100.57 128.299 41.9426C119.347 37.4758 112.484 42.2776 156.646 97.2199C211.85 165.898 392.38 137.422 610.209 41.9426Z" fill="#4463B1"/>
</g>
<path d="M683.688 328.329C1018.77 164.595 1157.66 156.798 1478.85 219.173L1584.76 429.688L36.0968 907.246C7.73951 902.048 89.9172 770.801 313.883 571.981C356.101 534.504 348.609 492.063 683.688 328.329Z" fill="url(#paint2_linear_142:46958)"/>
<g opacity="0.7" filter="url(#filter5_f_142:46958)">
<path d="M899.437 257.088C1242.59 116.011 1157.66 156.798 1478.85 219.173L1584.75 429.689L48.2493 903.348C19.892 898.15 -12.5164 787.954 84.7088 630.458C206.24 433.587 499.972 421.313 899.437 257.088Z" fill="#4463B1"/>
</g>
<g filter="url(#filter6_f_142:46958)">
<path d="M806.953 345.872C1199.28 247.581 1179.49 156.799 1534.66 219.174L1584.75 429.689L-114.271 903.348C-145.628 898.15 -181.464 787.954 -73.9552 630.458C60.4311 433.587 511.304 419.942 806.953 345.872Z" fill="#4463B1"/>
</g>
<g filter="url(#filter7_f_142:46958)">
<ellipse rx="329.847" ry="107.571" transform="matrix(0.914846 -0.403803 0.330497 0.943807 270.509 471.878)" fill="#4463B1"/>
</g>
<g opacity="0.4" filter="url(#filter8_f_142:46958)">
<ellipse rx="329.847" ry="156.166" transform="matrix(0.914846 -0.403803 0.330497 0.943807 791.671 574.923)" fill="#4463B1"/>
</g>
<g filter="url(#filter9_f_142:46958)">
<ellipse rx="329.847" ry="107.571" transform="matrix(0.914846 -0.403803 0.330497 0.943807 1318.55 400.565)" fill="#3A78F0"/>
</g>
<g filter="url(#filter10_f_142:46958)">
<ellipse rx="296.397" ry="165.703" transform="matrix(0.914846 -0.403803 0.330497 0.943807 -44.2314 545.587)" fill="#55B2D1"/>
</g>
<g filter="url(#filter11_f_142:46958)">
<path d="M-430.542 798.606V1422.5H1785.46V341.327L-430.542 798.606Z" fill="white"/>
</g>
<g filter="url(#filter12_f_142:46958)">
<path d="M1169.33 195.1L1652.09 -50.5L1532.29 245.197L1169.33 195.1Z" fill="#55B2D1"/>
</g>
<g opacity="0.4" filter="url(#filter13_f_142:46958)">
<path d="M304.063 803.197L1066.41 450.801L1427.55 400.295L1878.09 402.828L376.564 979.15L304.063 803.197Z" fill="url(#paint3_linear_142:46958)"/>
</g>
<g opacity="0.4" filter="url(#filter14_f_142:46958)">
<path d="M888.458 621.814L1690.62 378.377L2055.23 378.377L2501.46 443.293L937.073 806.13L888.458 621.814Z" fill="url(#paint4_linear_142:46958)"/>
</g>
<g opacity="0.4" filter="url(#filter15_f_142:46958)">
<path d="M840.231 675.805L1707.28 340.405L2012.85 295.817L2463.57 306.523L954.542 855.116L840.231 675.805Z" fill="url(#paint5_linear_142:46958)"/>
</g>
<defs>
<filter id="filter0_f_142:46958" x="-64.3718" y="-19.6624" width="1626.9" height="733.261" filterUnits="userSpaceOnUse" color-interpolation-filters="sRGB">
<feFlood flood-opacity="0" result="BackgroundImageFix"/>
<feBlend mode="normal" in="SourceGraphic" in2="BackgroundImageFix" result="shape"/>
<feGaussianBlur stdDeviation="3.5" result="effect1_foregroundBlur_142:46958"/>
</filter>
<filter id="filter1_f_142:46958" x="-124.65" y="-36.6624" width="1704.18" height="767.261" filterUnits="userSpaceOnUse" color-interpolation-filters="sRGB">
<feFlood flood-opacity="0" result="BackgroundImageFix"/>
<feBlend mode="normal" in="SourceGraphic" in2="BackgroundImageFix" result="shape"/>
<feGaussianBlur stdDeviation="12" result="effect1_foregroundBlur_142:46958"/>
</filter>
<filter id="filter2_f_142:46958" x="378.033" y="-20.6176" width="935.751" height="662.969" filterUnits="userSpaceOnUse" color-interpolation-filters="sRGB">
<feFlood flood-opacity="0" result="BackgroundImageFix"/>
<feBlend mode="normal" in="SourceGraphic" in2="BackgroundImageFix" result="shape"/>
<feGaussianBlur stdDeviation="82" result="effect1_foregroundBlur_142:46958"/>
</filter>
<filter id="filter3_f_142:46958" x="-10.032" y="-39.6458" width="751.953" height="255.045" filterUnits="userSpaceOnUse" color-interpolation-filters="sRGB">
<feFlood flood-opacity="0" result="BackgroundImageFix"/>
<feBlend mode="normal" in="SourceGraphic" in2="BackgroundImageFix" result="shape"/>
<feGaussianBlur stdDeviation="34" result="effect1_foregroundBlur_142:46958"/>
</filter>
<filter id="filter4_f_142:46958" x="85.6804" y="4.66809" width="560.529" height="166.418" filterUnits="userSpaceOnUse" color-interpolation-filters="sRGB">
<feFlood flood-opacity="0" result="BackgroundImageFix"/>
<feBlend mode="normal" in="SourceGraphic" in2="BackgroundImageFix" result="shape"/>
<feGaussianBlur stdDeviation="18" result="effect1_foregroundBlur_142:46958"/>
</filter>
<filter id="filter5_f_142:46958" x="8.37329" y="150.832" width="1587.38" height="763.516" filterUnits="userSpaceOnUse" color-interpolation-filters="sRGB">
<feFlood flood-opacity="0" result="BackgroundImageFix"/>
<feBlend mode="normal" in="SourceGraphic" in2="BackgroundImageFix" result="shape"/>
<feGaussianBlur stdDeviation="5.5" result="effect1_foregroundBlur_142:46958"/>
</filter>
<filter id="filter6_f_142:46958" x="-192.201" y="152.668" width="1822.96" height="796.68" filterUnits="userSpaceOnUse" color-interpolation-filters="sRGB">
<feFlood flood-opacity="0" result="BackgroundImageFix"/>
<feBlend mode="normal" in="SourceGraphic" in2="BackgroundImageFix" result="shape"/>
<feGaussianBlur stdDeviation="23" result="effect1_foregroundBlur_142:46958"/>
</filter>
<filter id="filter7_f_142:46958" x="-197.366" y="140.394" width="935.751" height="662.969" filterUnits="userSpaceOnUse" color-interpolation-filters="sRGB">
<feFlood flood-opacity="0" result="BackgroundImageFix"/>
<feBlend mode="normal" in="SourceGraphic" in2="BackgroundImageFix" result="shape"/>
<feGaussianBlur stdDeviation="82" result="effect1_foregroundBlur_142:46958"/>
</filter>
<filter id="filter8_f_142:46958" x="321.48" y="212.265" width="940.381" height="725.316" filterUnits="userSpaceOnUse" color-interpolation-filters="sRGB">
<feFlood flood-opacity="0" result="BackgroundImageFix"/>
<feBlend mode="normal" in="SourceGraphic" in2="BackgroundImageFix" result="shape"/>
<feGaussianBlur stdDeviation="82" result="effect1_foregroundBlur_142:46958"/>
</filter>
<filter id="filter9_f_142:46958" x="850.675" y="69.0803" width="935.751" height="662.969" filterUnits="userSpaceOnUse" color-interpolation-filters="sRGB">
<feFlood flood-opacity="0" result="BackgroundImageFix"/>
<feBlend mode="normal" in="SourceGraphic" in2="BackgroundImageFix" result="shape"/>
<feGaussianBlur stdDeviation="82" result="effect1_foregroundBlur_142:46958"/>
</filter>
<filter id="filter10_f_142:46958" x="-484.918" y="184.642" width="881.373" height="721.889" filterUnits="userSpaceOnUse" color-interpolation-filters="sRGB">
<feFlood flood-opacity="0" result="BackgroundImageFix"/>
<feBlend mode="normal" in="SourceGraphic" in2="BackgroundImageFix" result="shape"/>
<feGaussianBlur stdDeviation="82" result="effect1_foregroundBlur_142:46958"/>
</filter>
<filter id="filter11_f_142:46958" x="-586.542" y="185.327" width="2528" height="1393.17" filterUnits="userSpaceOnUse" color-interpolation-filters="sRGB">
<feFlood flood-opacity="0" result="BackgroundImageFix"/>
<feBlend mode="normal" in="SourceGraphic" in2="BackgroundImageFix" result="shape"/>
<feGaussianBlur stdDeviation="78" result="effect1_foregroundBlur_142:46958"/>
</filter>
<filter id="filter12_f_142:46958" x="1101.33" y="-118.5" width="618.759" height="431.697" filterUnits="userSpaceOnUse" color-interpolation-filters="sRGB">
<feFlood flood-opacity="0" result="BackgroundImageFix"/>
<feBlend mode="normal" in="SourceGraphic" in2="BackgroundImageFix" result="shape"/>
<feGaussianBlur stdDeviation="34" result="effect1_foregroundBlur_142:46958"/>
</filter>
<filter id="filter13_f_142:46958" x="297.063" y="393.295" width="1588.03" height="592.855" filterUnits="userSpaceOnUse" color-interpolation-filters="sRGB">
<feFlood flood-opacity="0" result="BackgroundImageFix"/>
<feBlend mode="normal" in="SourceGraphic" in2="BackgroundImageFix" result="shape"/>
<feGaussianBlur stdDeviation="3.5" result="effect1_foregroundBlur_142:46958"/>
</filter>
<filter id="filter14_f_142:46958" x="881.458" y="371.377" width="1627" height="441.754" filterUnits="userSpaceOnUse" color-interpolation-filters="sRGB">
<feFlood flood-opacity="0" result="BackgroundImageFix"/>
<feBlend mode="normal" in="SourceGraphic" in2="BackgroundImageFix" result="shape"/>
<feGaussianBlur stdDeviation="3.5" result="effect1_foregroundBlur_142:46958"/>
</filter>
<filter id="filter15_f_142:46958" x="816.231" y="271.817" width="1671.34" height="607.299" filterUnits="userSpaceOnUse" color-interpolation-filters="sRGB">
<feFlood flood-opacity="0" result="BackgroundImageFix"/>
<feBlend mode="normal" in="SourceGraphic" in2="BackgroundImageFix" result="shape"/>
<feGaussianBlur stdDeviation="12" result="effect1_foregroundBlur_142:46958"/>
</filter>
<linearGradient id="paint0_linear_142:46958" x1="749.077" y1="-12.6624" x2="82.1519" y2="551.366" gradientUnits="userSpaceOnUse">
<stop stop-color="#FF7D54"/>
<stop offset="1" stop-color="white" stop-opacity="0"/>
</linearGradient>
<linearGradient id="paint1_linear_142:46958" x1="501.673" y1="242.685" x2="30.1956" y2="626.781" gradientUnits="userSpaceOnUse">
<stop offset="0.0104167" stop-color="#91B0ED"/>
<stop offset="0.458333" stop-color="#437DD5"/>
<stop offset="1" stop-color="#8A3AF0"/>
</linearGradient>
<linearGradient id="paint2_linear_142:46958" x1="1164.6" y1="269.853" x2="415.716" y2="537.303" gradientUnits="userSpaceOnUse">
<stop stop-color="#819CFF"/>
<stop offset="0.65537" stop-color="#E73800"/>
<stop offset="1" stop-color="#819CFF"/>
</linearGradient>
<linearGradient id="paint3_linear_142:46958" x1="1070.71" y1="450.199" x2="768.313" y2="1036.85" gradientUnits="userSpaceOnUse">
<stop stop-color="#3A4CF0"/>
<stop offset="1" stop-color="white" stop-opacity="0"/>
</linearGradient>
<linearGradient id="paint4_linear_142:46958" x1="1694.96" y1="378.377" x2="1316.46" y2="916.653" gradientUnits="userSpaceOnUse">
<stop stop-color="#D73AF0"/>
<stop offset="1" stop-color="white" stop-opacity="0"/>
</linearGradient>
<linearGradient id="paint5_linear_142:46958" x1="1427.97" y1="519.754" x2="1202.25" y2="923.397" gradientUnits="userSpaceOnUse">
<stop offset="0.166667" stop-color="#FF9471"/>
<stop offset="0.541667" stop-color="#DBC0C6" stop-opacity="0.69"/>
<stop offset="0.791667" stop-color="#C2DEFF" stop-opacity="0.62"/>
<stop offset="1" stop-color="#9492FF" stop-opacity="0"/>
</linearGradient>
</defs>
</svg>
