<svg width="56" height="56" viewBox="0 0 56 56" fill="none" xmlns="http://www.w3.org/2000/svg">
<path d="M2.096 1.0207C1.80311 0.727802 1.32824 0.727802 1.03534 1.0207C0.742451 1.31359 0.742451 1.78846 1.03534 2.08136L53.5421 54.5882C53.835 54.881 54.3099 54.881 54.6028 54.5882C54.8957 54.2953 54.8957 53.8204 54.6028 53.5275L2.096 1.0207Z" stroke="#003399" stroke-width="1.5" stroke-linecap="round" stroke-linejoin="round"/>
<path d="M54.6028 1.0207C54.3099 0.727802 53.835 0.727802 53.5421 1.0207L1.03534 53.5275C0.742451 53.8204 0.742451 54.2953 1.03534 54.5882C1.32824 54.881 1.80311 54.881 2.096 54.5882L54.6028 2.08136C54.8957 1.78846 54.8957 1.31359 54.6028 1.0207Z" stroke="#003399" stroke-width="1.5" stroke-linecap="round" stroke-linejoin="round"/>
</svg>
