<svg width="87" height="87" viewBox="0 0 87 87" fill="none" xmlns="http://www.w3.org/2000/svg">
<path d="M33.7781 25.8174V23.7866V4.64947C33.7781 2.73933 35.3254 1.18628 37.2397 1.18628H82.3006C84.2134 1.18628 85.7622 2.73908 85.7625 4.64939V4.64947V45.5012C85.7625 47.4121 84.2129 48.9628 82.3008 48.9628H68.7741L76.0073 81.8054C76.0074 81.8057 76.0075 81.806 76.0076 81.8063L76.0076 81.8066L75.2752 81.9679C75.6112 83.4817 74.6547 84.9786 73.1398 85.3126L33.7781 25.8174ZM33.7781 25.8174L35.098 24.2741L37.0586 21.9818L37.0589 21.9815C37.8742 21.0271 38.9517 20.434 40.1093 20.1849L40.7015 20.0574V19.4517V8.11163M33.7781 25.8174L40.7015 8.11163M40.7015 8.11163H78.8387V42.0389H40.7017V36.8584V34.8274L39.3817 36.371L38.1611 37.7983C38.161 37.7985 38.1608 37.7986 38.1607 37.7987C37.2215 38.8945 35.8951 39.5755 34.4583 39.7098L33.7781 39.7734V40.4566V45.5012C33.7781 47.4119 35.3259 48.9628 37.2397 48.9628H50.941L43.7068 81.8065L43.7068 81.8067C43.2847 83.7251 44.4972 85.622 46.4163 86.045L46.4168 86.0451C48.319 86.463 50.2315 85.2579 50.651 83.3375C50.6511 83.3372 50.6512 83.3369 50.6512 83.3366L58.2218 48.963H61.4927L69.0635 83.338L69.0635 83.3382C69.4294 84.9977 70.9006 86.1289 72.5332 86.1274L40.7015 8.11163Z" stroke="#003399" stroke-width="1.5"/>
<path d="M60.7651 17.7766C60.5513 17.2379 59.9454 16.9734 59.4071 17.1866L43.4311 22.8255C41.9648 21.6903 39.8494 21.8931 38.6267 23.3152L33.5573 29.2352L29.0623 25.3821C29.0919 25.7003 29.1593 26.0095 29.1593 26.336V34.7006L31.6601 36.8434C33.1442 38.1144 35.3642 37.918 36.6051 36.4627L42.6402 29.4055L47.5074 26.5581L60.3166 19.0637C60.7595 18.8084 60.9558 18.2628 60.7651 17.7766Z" fill="#003399"/>
<path d="M19.2929 19.2776H16.2823C13.9772 19.2776 11.9503 20.3979 10.6619 22.1056L1.42069 30.6138C-0.0192201 31.8964 -0.149822 34.1182 1.14684 35.5668L8.68642 43.9823C9.97182 45.4215 12.1969 45.5488 13.6366 44.2553C15.0802 42.9616 15.2021 40.7457 13.9086 39.3038L8.71171 33.5005L16.0933 26.8953L11.7942 32.7362L15.9996 37.4314C18.3234 40.0282 18.1043 44.0182 15.5087 46.3437C13.7366 47.9324 11.3182 48.3051 9.22164 47.5725C9.22164 47.5725 9.25421 63.7953 9.25421 81.169C9.25421 83.4928 11.1377 85.3765 13.4617 85.3765C15.7833 85.3765 17.6692 83.4928 17.6692 81.169C17.6692 63.8007 17.6692 73.7121 17.6692 56.0929H20.4757C20.4757 73.6992 20.4757 63.7953 20.4757 81.169C20.4757 82.3822 20.1375 83.5056 19.5981 84.5C20.3041 85.0431 21.1826 85.3765 22.1401 85.3765C24.4653 85.3765 26.3489 83.4928 26.3489 81.169C26.3489 63.8007 26.3542 71.0817 26.3542 26.3368C26.3546 22.438 23.194 19.2776 19.2929 19.2776Z" fill="#003399"/>
<path d="M14.0412 16.7528C15.1662 17.3376 16.4293 17.7004 17.7861 17.7004C19.1463 17.7004 20.4094 17.3376 21.5377 16.7518C24.1712 15.3874 25.9865 12.6711 25.9865 9.50075C25.9865 4.97195 22.3151 1.30176 17.7859 1.30176C13.2575 1.30176 9.58691 4.97195 9.58691 9.50075C9.58709 12.6728 11.4043 15.3901 14.0412 16.7528Z" fill="#003399"/>
</svg>
