<svg width="45" height="71" viewBox="0 0 45 71" fill="none" xmlns="http://www.w3.org/2000/svg">
<path d="M22.6115 8.99316C31.536 8.99316 38.8855 16.3426 38.8855 25.267C38.8855 28.1544 38.0981 31.0416 36.5232 33.6664L35.7357 35.2416L37.3106 40.2285C37.8356 42.0659 39.148 43.3786 40.9854 44.4285C42.5603 45.2159 43.6102 46.7911 43.6102 48.6285V49.6782C43.6102 51.778 41.7728 53.6154 39.673 53.6154H5.55005C3.45018 53.6154 1.61279 51.778 1.61279 49.6782V48.6285C1.61279 46.7911 2.66273 45.2159 4.23763 44.4285C5.81254 43.641 7.12496 42.0659 7.91241 40.2285L9.48731 35.2416L8.69985 33.6664C3.97514 26.0544 6.6 15.8175 14.212 11.3553C16.8369 9.78036 19.7242 8.99316 22.6115 8.99316Z" stroke="#003399" stroke-width="2" stroke-linecap="round" stroke-linejoin="round"/>
<path d="M32.5878 61.489H12.114" stroke="#003399" stroke-width="2" stroke-linecap="round" stroke-linejoin="round"/>
<path d="M27.3357 69.3634H17.3613" stroke="#003399" stroke-width="2" stroke-linecap="round" stroke-linejoin="round"/>
<path d="M17.3613 8.99171V6.36687C17.3613 3.47954 19.7237 1.11719 22.611 1.11719C25.4983 1.11719 27.8607 3.47954 27.8607 6.36687V8.99171" stroke="#003399" stroke-width="2" stroke-linecap="round" stroke-linejoin="round"/>
</svg>
