<svg width="86" height="74" viewBox="0 0 86 74" fill="none" xmlns="http://www.w3.org/2000/svg">
<path d="M22.5952 14.0312H84.1526L68.7632 47.8878H28.751L22.5952 14.0312Z" stroke="#003399" stroke-width="5" stroke-linecap="round" stroke-linejoin="round"/>
<path d="M28.7554 47.8867H23.5231C21.0608 47.8867 18.9062 50.0412 18.9062 52.5035C18.9062 54.9658 21.0608 57.1203 23.5231 57.1203H81.0792" stroke="#003399" stroke-width="5" stroke-linecap="round" stroke-linejoin="round"/>
<path d="M7.20627 14.031C10.606 14.031 13.362 11.2749 13.362 7.87522C13.362 4.4755 10.606 1.71948 7.20627 1.71948C3.80655 1.71948 1.05054 4.4755 1.05054 7.87522C1.05054 11.2749 3.80655 14.031 7.20627 14.031Z" stroke="#003399" stroke-width="5" stroke-linecap="round" stroke-linejoin="round"/>
<path d="M19.5205 72.51C22.9202 72.51 25.6762 69.7539 25.6762 66.3542C25.6762 62.9545 22.9202 60.1985 19.5205 60.1985C16.1208 60.1985 13.3647 62.9545 13.3647 66.3542C13.3647 69.7539 16.1208 72.51 19.5205 72.51Z" stroke="#003399" stroke-width="5" stroke-linecap="round" stroke-linejoin="round"/>
<path d="M74.916 72.51C78.3157 72.51 81.0717 69.7539 81.0717 66.3542C81.0717 62.9545 78.3157 60.1985 74.916 60.1985C71.5163 60.1985 68.7603 62.9545 68.7603 66.3542C68.7603 69.7539 71.5163 72.51 74.916 72.51Z" stroke="#003399" stroke-width="5" stroke-linecap="round" stroke-linejoin="round"/>
<path d="M13.3647 7.87573C19.5205 7.87573 22.5984 10.0302 22.5984 14.0315" stroke="#003399" stroke-width="5" stroke-linecap="round" stroke-linejoin="round"/>
<path d="M25.6711 26.343H77.9949" stroke="#003399" stroke-width="5" stroke-linecap="round" stroke-linejoin="round"/>
</svg>
