<svg width="90" height="84" viewBox="0 0 90 84" fill="none" xmlns="http://www.w3.org/2000/svg">
<path d="M84.6786 40.7224V8.05561C84.6786 3.96187 81.3481 0.631348 77.2543 0.631348H11.9208C7.82707 0.631348 4.49655 3.96187 4.49655 8.05561V30.3284C2.0406 30.3284 0.0419922 32.327 0.0419922 34.7829V79.3285C0.0419922 81.7844 2.0406 83.7831 4.49655 83.7831H37.1633C39.6192 83.7831 41.6179 81.7844 41.6179 79.3285H54.0624C55.4626 79.3285 56.753 78.69 57.6023 77.5779C58.4516 76.4657 58.7278 75.0521 58.3596 73.7024L55.4403 62.9951H63.8906V79.3285C63.8906 81.7844 65.8893 83.7831 68.3452 83.7831H84.6786C87.1345 83.7831 89.1331 81.7844 89.1331 79.3285V45.1769C89.1331 42.721 87.1345 40.7224 84.6786 40.7224ZM38.6482 79.3285C38.6482 80.1467 37.9815 80.8134 37.1633 80.8134H4.49655C3.6784 80.8134 3.0117 80.1467 3.0117 79.3285V76.3588H38.6482V79.3285ZM38.6482 73.3891H3.0117V40.7224H38.6482V73.3891ZM38.6482 37.7526H3.0117V34.7829C3.0117 33.9648 3.6784 33.2981 4.49655 33.2981H37.1633C37.9815 33.2981 38.6482 33.9648 38.6482 34.7829V37.7526ZM55.4953 74.4834C55.6185 74.9333 55.5265 75.404 55.2429 75.7752C54.9593 76.1465 54.5301 76.3588 54.0624 76.3588H41.6179V73.3891H55.1968L55.4953 74.4834ZM41.6179 70.4194V62.9951H52.3622L54.3876 70.4194H41.6179ZM63.8906 60.0254H41.6179V51.1163H63.8906V60.0254ZM63.8906 45.1769V48.1466H41.6179V34.7829C41.6179 32.327 39.6192 30.3284 37.1633 30.3284H7.46625V8.05561C7.46625 5.59966 9.46486 3.60105 11.9208 3.60105H77.2543C79.7103 3.60105 81.7089 5.59966 81.7089 8.05561V40.7224H68.3452C65.8893 40.7224 63.8906 42.721 63.8906 45.1769ZM86.1634 79.3285C86.1634 80.1467 85.4967 80.8134 84.6786 80.8134H68.3452C67.527 80.8134 66.8603 80.1467 66.8603 79.3285V76.3588H86.1634V79.3285ZM86.1634 73.3891H66.8603V51.1163H86.1634V73.3891ZM86.1634 48.1466H66.8603V45.1769C66.8603 44.3588 67.527 43.6921 68.3452 43.6921H84.6786C85.4967 43.6921 86.1634 44.3588 86.1634 45.1769V48.1466Z" fill="#003399"/>
</svg>
