<svg width="12" height="12" viewBox="0 0 12 12" fill="none" xmlns="http://www.w3.org/2000/svg">
<path d="M11.2674 1.77074C11.2674 2.74869 10.4711 3.54147 9.48879 3.54147C8.5065 3.54147 7.71021 2.74869 7.71021 1.77074C7.71021 0.792786 8.5065 -2.14208e-08 9.48879 -4.78447e-08C10.4711 -7.42686e-08 11.2674 0.792786 11.2674 1.77074Z" fill="white"/>
<path d="M11.271 9.45238C11.271 10.4303 10.4747 11.2231 9.49245 11.2231C8.51017 11.2231 7.71387 10.4303 7.71387 9.45238C7.71387 8.47443 8.51017 7.68164 9.49245 7.68164C10.4747 7.68164 11.271 8.47443 11.271 9.45238Z" fill="white"/>
<path d="M3.55717 1.77074C3.55717 2.74869 2.76087 3.54147 1.77858 3.54147C0.796299 3.54147 7.39408e-08 2.74869 4.76336e-08 1.77074C2.13263e-08 0.792786 0.796299 -2.14208e-08 1.77858 -4.78447e-08C2.76087 -7.42686e-08 3.55717 0.792786 3.55717 1.77074Z" fill="white"/>
<path d="M3.56156 9.44505C3.56156 10.423 2.76526 11.2158 1.78298 11.2158C0.800694 11.2158 0.00439461 10.423 0.00439458 9.44505C0.00439455 8.4671 0.800694 7.67432 1.78298 7.67432C2.76526 7.67432 3.56156 8.4671 3.56156 9.44505Z" fill="white"/>
</svg>
