<svg width="62" height="77" viewBox="0 0 62 77" fill="none" xmlns="http://www.w3.org/2000/svg">
<path d="M61.5687 66.3784L53.7822 56.2185C56.3053 55.4534 58.4848 53.8157 59.9423 51.5898C61.776 48.3729 60.9468 44.4469 60.1445 40.6546C59.6593 38.7065 59.369 36.7136 59.2782 34.7064C59.3687 32.6975 59.6589 30.7028 60.1445 28.7531C60.9417 24.9582 61.776 21.0348 59.9423 17.8231C58.0433 14.4932 54.2198 13.2607 50.5217 12.071C48.6808 11.5563 46.898 10.8476 45.2023 9.95672C43.6636 8.94372 42.2349 7.76837 40.9399 6.45017C38.1964 3.86572 35.0856 0.939697 31.1265 0.939697C27.1673 0.939697 24.0566 3.86572 21.3118 6.44887C20.0173 7.7674 18.5889 8.94323 17.0506 9.95672C15.3551 10.8459 13.5728 11.5527 11.7325 12.0658C8.03442 13.2555 4.21091 14.488 2.31195 17.8179C0.478252 21.0348 1.30745 24.9608 2.10977 28.7531C2.59491 30.703 2.88474 32.6975 2.97479 34.7064C2.88426 36.7154 2.59411 38.7101 2.10849 40.6598C1.31129 44.4546 0.476972 48.3781 2.31067 51.5898C3.77008 53.8165 5.952 55.4537 8.47717 56.2172L0.684271 66.3771C0.250479 66.9433 0.351089 67.7592 0.909164 68.1995C1.17725 68.411 1.51699 68.5057 1.85385 68.4628L11.0031 67.303L13.2617 75.324C13.394 75.7941 13.7753 76.149 14.2483 76.2421C14.3284 76.2576 14.4098 76.2655 14.4914 76.2655C14.8865 76.2658 15.2597 76.0808 15.5023 75.7642L23.674 65.0965C25.6849 67.0834 28.3264 68.2803 31.1265 68.4732C33.9266 68.2803 36.5681 67.0834 38.579 65.0965L46.7507 75.7603C46.9925 76.0783 47.3657 76.2649 47.7616 76.2655C47.8432 76.2655 47.9246 76.2576 48.0047 76.2421C48.4777 76.149 48.859 75.7941 48.9913 75.324L51.2498 67.3043L60.3991 68.4641C61.1004 68.5534 61.7402 68.0488 61.8281 67.3371C61.8704 66.9953 61.7771 66.6504 61.5687 66.3784ZM15.0288 72.1499L13.1619 65.5186C12.9883 64.9035 12.3991 64.5084 11.7735 64.5874L4.60759 65.4965L11.03 57.1172L11.7376 57.347C13.5761 57.8605 15.3567 58.5674 17.0506 59.4562C18.5894 60.4692 20.0181 61.6445 21.3131 62.9627L21.7533 63.3757L15.0288 72.1499ZM31.1265 65.8757C28.1706 65.8757 25.6842 63.5381 23.0508 61.0601C21.6181 59.6073 20.0355 58.3156 18.3303 57.2068C16.475 56.2211 14.5219 55.4374 12.5041 54.8691C9.1221 53.7795 5.92688 52.7509 4.52442 50.2911C3.18593 47.9417 3.87693 44.6676 4.61015 41.2001C5.13784 39.0736 5.4475 36.8975 5.53404 34.7064C5.44799 32.5153 5.1388 30.3393 4.61143 28.2128C3.87821 24.7466 3.18721 21.4725 4.5257 19.1218C5.93328 16.662 9.12338 15.6334 12.5054 14.5438C14.5229 13.9753 16.4753 13.1917 18.3303 12.2061C20.035 11.0973 21.6173 9.80542 23.0495 8.3528C25.6842 5.87484 28.1706 3.53714 31.1265 3.53714C34.0824 3.53714 36.5687 5.87484 39.2022 8.3528C40.6349 9.80558 42.2175 11.0973 43.9227 12.2061C45.778 13.1918 47.731 13.9754 49.7488 14.5438C53.1309 15.6334 56.3261 16.662 57.7286 19.1218C59.067 21.4712 58.376 24.7453 57.6428 28.2128C57.1151 30.3393 56.8055 32.5153 56.7189 34.7064C56.805 36.8975 57.1142 39.0736 57.6415 41.2001C58.3748 44.6663 59.0658 47.9404 57.7273 50.2911C56.3197 52.7509 53.1296 53.7795 49.7475 54.8691C47.7301 55.4376 45.7777 56.2212 43.9227 57.2068C42.2179 58.3156 40.6357 59.6075 39.2035 61.0601C36.5687 63.5381 34.0824 65.8757 31.1265 65.8757ZM50.4859 64.5874C49.8603 64.5084 49.271 64.9035 49.0975 65.5186L47.2241 72.1499L40.501 63.377L40.9412 62.964C42.2357 61.6455 43.6641 60.4697 45.2023 59.4562C46.8978 58.567 48.6802 57.8602 50.5204 57.347L51.2281 57.1172L57.6518 65.4965L50.4859 64.5874Z" fill="#003399"/>
<path d="M31.1267 11.3286C18.4058 11.3286 8.09351 21.7948 8.09351 34.7056C8.09351 47.6163 18.4058 58.0826 31.1267 58.0826C43.8476 58.0826 54.1599 47.6163 54.1599 34.7056C54.1452 21.801 43.8415 11.3437 31.1267 11.3286ZM31.1267 55.4851C19.8193 55.4851 10.6528 46.1817 10.6528 34.7056C10.6528 23.2294 19.8193 13.9261 31.1267 13.9261C42.4341 13.9261 51.6007 23.2294 51.6007 34.7056C51.5872 46.1762 42.4286 55.4715 31.1267 55.4851Z" fill="#003399"/>
<path d="M45.8906 29.2812C45.4091 28.61 44.6407 28.2127 43.8227 28.2124H35.9889L33.5576 20.6448C33.1163 19.2819 31.67 18.5403 30.3272 18.9882C29.5548 19.2459 28.9489 19.8608 28.695 20.6448L26.2702 28.2124H18.4299C17.0164 28.2117 15.87 29.3739 15.8694 30.8085C15.8689 31.6397 16.2605 32.4207 16.9225 32.9099L23.2643 37.5853L20.842 45.1529C20.405 46.5172 21.1406 47.9827 22.4847 48.426C23.2642 48.6832 24.1177 48.5458 24.7807 48.0569L31.1263 43.3828L37.4694 48.0582C38.3629 48.7319 39.5856 48.7319 40.4791 48.0582C41.3859 47.4041 41.7633 46.2242 41.4081 45.1542L38.9858 37.5853L45.3276 32.9099C46.4704 32.0657 46.7225 30.441 45.8906 29.2812ZM36.7285 36.0398C36.2797 36.3708 36.0921 36.9577 36.264 37.4931L38.9742 45.9581L31.8787 40.7269C31.4304 40.3965 30.8235 40.3965 30.3752 40.7269L23.2797 45.9581L25.9886 37.4931C26.16 36.958 25.9725 36.3719 25.5241 36.0411L18.4299 30.8098H27.1992C27.7536 30.8098 28.2448 30.4475 28.4161 29.9124L31.1263 21.4474L33.8366 29.9111C34.0079 30.4462 34.4991 30.8085 35.0535 30.8085L43.8227 30.8098L36.7285 36.0398Z" fill="#003399"/>
</svg>
