<svg width="83" height="85" viewBox="0 0 83 85" fill="none" xmlns="http://www.w3.org/2000/svg">
<path d="M9.50931 7.51225L40.9323 11.7217C40.9911 11.7287 41.0498 11.7328 41.1086 11.7328C41.1673 11.7328 41.2261 11.7286 41.2849 11.7217L71.1654 7.71845V12.5902C70.3088 13.5794 68.4329 16.0475 68.4329 18.7486C68.4329 21.8369 70.8839 22.958 72.5316 22.958C74.1792 22.958 76.6302 21.8369 76.6302 18.7486C76.6302 16.0475 74.7544 13.5794 73.8977 12.5902V6.12035C73.8977 5.9352 73.8595 5.75975 73.7953 5.59697C73.772 5.53941 73.7323 5.49453 73.7024 5.44125C73.6491 5.34309 73.5958 5.24624 73.5221 5.16484C73.4743 5.11288 73.4169 5.07786 73.3623 5.03576C73.2845 4.97114 73.208 4.90948 73.1179 4.86459C73.0509 4.83088 72.9799 4.81691 72.9075 4.79586C72.8406 4.77481 72.7804 4.73831 72.708 4.72844L41.285 0.519027C41.1675 0.505051 41.05 0.505051 40.9325 0.519027L9.50947 4.72844C8.82903 4.8197 8.31958 5.41593 8.31958 6.12035C8.31926 6.82477 8.82887 7.42116 9.50931 7.51225ZM73.8976 18.7486C73.8976 19.8684 73.1584 20.1306 72.5314 20.1517C71.9043 20.1306 71.1652 19.8682 71.1652 18.7486C71.1652 17.5839 71.862 16.2846 72.5314 15.3263C73.2008 16.2848 73.8976 17.5841 73.8976 18.7486ZM41.1084 3.32536L61.9691 6.12035L41.1084 8.9155L20.2478 6.12035L41.1084 3.32536Z" fill="#003399"/>
<path d="M49.3038 42.6014C52.0635 42.6014 54.3301 40.4813 54.6935 37.7466L59.687 33.9021C60.2909 33.4376 60.4138 32.5579 59.9603 31.9376C59.508 31.3174 58.6514 31.1898 58.0475 31.657L54.5651 34.3398C54.0446 32.6294 52.5062 31.3764 50.6699 31.3764H45.2051C42.9454 31.3764 41.1065 33.2651 41.1065 35.5859C41.1065 33.2651 39.2676 31.3764 37.0079 31.3764H31.5431C29.7068 31.3764 28.1686 32.6294 27.6479 34.3398L24.1655 31.657C23.563 31.1924 22.705 31.3187 22.2528 31.9376C21.7992 32.5579 21.9221 33.4376 22.5261 33.9021L27.5195 37.7466C27.8829 40.4813 30.1481 42.6014 32.9092 42.6014H35.6417C38.6556 42.6014 41.1065 40.0842 41.1065 36.9889C41.1065 40.0843 43.5575 42.6014 46.5713 42.6014H49.3038ZM38.374 36.9889C38.374 38.5366 37.1472 39.7953 35.6415 39.7953H32.9091C31.4022 39.7953 30.1766 38.5367 30.1766 36.9889V35.5859C30.1766 34.8127 30.7887 34.1828 31.5427 34.1828H37.0075C37.7616 34.1828 38.3737 34.8127 38.3737 35.5859V36.9889H38.374ZM43.839 36.9889V35.5859C43.839 34.8127 44.4511 34.1828 45.2051 34.1828H50.6699C51.424 34.1828 52.0361 34.8127 52.0361 35.5859V36.9889C52.0361 38.5366 50.8107 39.7953 49.3036 39.7953H46.5711C45.0644 39.7951 43.839 38.5366 43.839 36.9889Z" fill="#003399"/>
<path d="M62.9098 71.7244C62.8838 71.6247 62.8428 71.535 62.7977 71.4424C62.7718 71.3932 62.7663 71.3372 62.7362 71.2895C62.7212 71.2684 62.6994 71.2572 62.6843 71.2362C62.627 71.1591 62.5559 71.0959 62.4821 71.0313C62.4165 70.9697 62.3523 70.9093 62.2745 70.8643C62.2513 70.8488 62.2377 70.8264 62.2116 70.8123L56.7468 68.0074C56.3068 67.7815 55.7849 67.8152 55.3779 68.0944L47.1791 73.7069C46.7994 73.9666 46.5712 74.4058 46.5712 74.8744V79.8499C45.7584 80.5178 43.7624 81.89 41.1064 81.89C38.4764 81.89 36.4613 80.5107 35.6416 79.8456V74.8742C35.6416 74.4056 35.4135 73.9664 35.0337 73.7068L26.8364 68.0943C26.4293 67.8151 25.9073 67.7813 25.4675 68.0073L20.0027 70.8121C19.9781 70.8248 19.9645 70.8471 19.9427 70.8613C19.8607 70.909 19.7924 70.9721 19.7227 71.0381C19.6543 71.0999 19.5861 71.1587 19.5328 71.2318C19.5165 71.2543 19.4918 71.2668 19.4768 71.2893C19.444 71.3398 19.4385 71.3973 19.4126 71.4506C19.3702 71.5391 19.3292 71.6246 19.3047 71.7199C19.2827 71.8084 19.2773 71.8926 19.2719 71.9824C19.2664 72.0708 19.2623 72.1563 19.2733 72.2461C19.2842 72.3443 19.3157 72.4341 19.3471 72.5268C19.3662 72.5829 19.3649 72.6419 19.3908 72.6952C19.4031 72.7205 19.4264 72.7358 19.44 72.7598C19.4851 72.8412 19.5466 72.9099 19.6094 72.9815C19.6708 73.0517 19.7282 73.1217 19.7992 73.178C19.8212 73.1947 19.8333 73.22 19.8553 73.2355L28.0526 78.848C28.2862 79.008 28.5498 79.0838 28.8094 79.0838C29.2506 79.0838 29.6851 78.8649 29.9474 78.4595C30.3669 77.8141 30.1975 76.9426 29.5689 76.5133L23.3294 72.2422L25.9799 70.8812L32.9093 75.6252V80.487C32.9093 80.8588 33.0528 81.2166 33.3096 81.4791C33.438 81.6109 36.4956 84.6965 41.1066 84.6965C45.7176 84.6965 48.7752 81.6109 48.9036 81.4791C49.1591 81.2166 49.3039 80.8588 49.3039 80.487V75.6252L56.2347 70.8812L58.8838 72.2409L52.6443 76.5134C52.0159 76.9428 51.8465 77.8141 52.2658 78.4596C52.528 78.8651 52.9626 79.084 53.4038 79.084C53.6633 79.084 53.927 79.0082 54.1606 78.8482L62.3579 73.2357C62.3798 73.2202 62.3907 73.1964 62.4112 73.1809C62.4877 73.122 62.5478 73.049 62.612 72.9747C62.6693 72.9045 62.7281 72.8414 62.7718 72.7628C62.7854 72.7374 62.81 72.7222 62.8224 72.6953C62.851 72.6378 62.851 72.5761 62.8702 72.5171C62.8989 72.4286 62.929 72.3445 62.9399 72.2519C62.9522 72.1565 62.948 72.0667 62.9413 71.9727C62.9357 71.8887 62.9315 71.8086 62.9098 71.7244Z" fill="#003399"/>
<path d="M68.532 66.9776C68.7465 67.5248 69.2588 67.8588 69.8011 67.8588C69.9705 67.8588 70.1413 67.8266 70.308 67.7578C71.0089 67.4716 71.349 66.655 71.0704 65.9351C71.043 65.8677 68.4349 59.0753 68.4349 52.4244V41.1992C68.4349 29.2445 62.4687 26.0438 62.2146 25.9134C61.7924 25.6959 61.2883 25.7169 60.8867 25.9738C60.4837 26.2306 60.2378 26.681 60.2378 27.1679V32.7804C60.2378 38.087 56.2841 48.9881 54.9165 51.7971C53.691 54.3157 47.2069 62.2463 41.1109 62.2463C35.015 62.2463 28.5308 54.3158 27.3039 51.7971C25.9378 48.9879 21.9839 38.087 21.9839 32.7804V27.1679C21.9839 26.681 21.7379 26.2306 21.335 25.9738C20.932 25.7169 20.4291 25.6959 20.0071 25.9134C19.753 26.044 13.7867 29.2445 13.7867 41.1992V52.4244C13.7867 59.0753 11.1787 65.8679 11.1513 65.9351C10.8725 66.655 11.2128 67.4716 11.9137 67.7578C12.6119 68.0441 13.4097 67.6962 13.6897 66.9776C13.8045 66.6802 16.5191 59.6279 16.5191 52.4242V41.199C16.5191 35.5093 17.9632 32.2036 19.2515 30.3851V32.7802C19.2515 38.8025 23.5537 50.3685 24.8598 53.0514C26.5225 56.4666 33.799 65.0525 41.1109 65.0525C48.4228 65.0525 55.6994 56.4666 57.3606 53.0514C58.668 50.3685 62.9703 38.8025 62.9703 32.7802V30.3879C64.2614 32.2078 65.7028 35.5122 65.7028 41.199V52.4242C65.7025 59.6279 68.4172 66.6802 68.532 66.9776Z" fill="#003399"/>
<path d="M44.2588 51.4162C44.2151 51.4568 43.185 52.4237 41.1098 52.4237C39.0646 52.4237 38.0343 51.4849 37.9634 51.4177C37.432 50.8831 36.5753 50.8872 36.0452 51.4317C35.511 51.9804 35.511 52.8671 36.0452 53.4157C36.2255 53.6008 37.9032 55.23 41.1098 55.23C44.3163 55.23 45.994 53.601 46.1743 53.4157C46.7017 52.874 46.7003 52.007 46.1825 51.4568C45.662 50.907 44.804 50.8915 44.2588 51.4162Z" fill="#003399"/>
<path d="M82.0238 82.8492C81.9036 82.4759 78.9224 73.6656 67.3971 70.7065C66.6648 70.5156 65.9243 70.9759 65.7413 71.7266C65.5583 72.4787 66.0035 73.2406 66.7359 73.4287C76.7462 75.9992 79.3296 83.4275 79.4335 83.7361C79.6234 84.3241 80.1562 84.6959 80.7287 84.6959C80.8707 84.6959 81.0171 84.6734 81.1605 84.6244C81.8763 84.3786 82.263 83.5845 82.0238 82.8492Z" fill="#003399"/>
<path d="M62.9695 21.5543V11.7324C62.9695 10.958 62.3589 10.3293 61.6033 10.3293C60.8478 10.3293 60.2372 10.958 60.2372 11.7324V20.6465C57.9775 21.6301 50.8266 24.3607 41.1101 24.3607C31.3936 24.3607 24.2428 21.6301 21.9831 20.6465V11.7324C21.9831 10.958 21.3724 10.3293 20.6169 10.3293C19.8614 10.3293 19.2507 10.958 19.2507 11.7324V21.5543C19.2507 22.0861 19.5431 22.5717 20.0063 22.8101C20.3532 22.9869 28.6353 27.1668 41.1101 27.1668C53.5849 27.1668 61.867 22.9869 62.214 22.8101C62.6772 22.5717 62.9695 22.0861 62.9695 21.5543Z" fill="#003399"/>
<path d="M14.8205 70.7065C3.29512 73.6658 0.313995 82.4761 0.193758 82.8492C-0.0452762 83.5844 0.341373 84.3786 1.05719 84.6242C1.20065 84.6734 1.34554 84.6957 1.48899 84.6957C2.06136 84.6957 2.59419 84.324 2.78423 83.736C2.81017 83.6589 5.39647 76.0173 15.4819 73.4285C16.2142 73.2406 16.6596 72.4786 16.4764 71.7265C16.2933 70.9759 15.5513 70.5156 14.8205 70.7065Z" fill="#003399"/>
</svg>
