<svg width="12" height="10" viewBox="0 0 12 10" fill="none" xmlns="http://www.w3.org/2000/svg">
<path d="M10.0081 2.47173C10.0151 2.57256 10.0151 2.67342 10.0151 2.77425C10.0151 5.84976 7.75462 9.39346 3.62316 9.39346C2.35034 9.39346 1.16795 9.01171 0.17334 8.3491C0.354184 8.37069 0.528049 8.3779 0.715851 8.3779C1.76608 8.3779 2.73288 8.01057 3.50492 7.38394C2.51727 7.36233 1.68959 6.69248 1.40442 5.77054C1.54353 5.79214 1.68263 5.80655 1.8287 5.80655C2.0304 5.80655 2.23212 5.77773 2.4199 5.72733C1.39052 5.51123 0.61846 4.5749 0.61846 3.44409V3.41529C0.917526 3.58816 1.26532 3.69619 1.63392 3.71058C1.02881 3.29282 0.632376 2.57977 0.632376 1.77307C0.632376 1.34092 0.74364 0.944775 0.9384 0.599047C2.0443 2.01076 3.70662 2.93268 5.57062 3.03354C5.53585 2.86067 5.51497 2.68062 5.51497 2.50055C5.51497 1.21847 6.51654 0.174103 7.76153 0.174103C8.40837 0.174103 8.99261 0.455004 9.40298 0.90877C9.9107 0.807938 10.3976 0.613458 10.8288 0.346967C10.6619 0.887176 10.3072 1.34094 9.84117 1.62903C10.2933 1.57863 10.7314 1.44896 11.1348 1.26891C10.8289 1.72986 10.4463 2.14039 10.0081 2.47173Z" fill="white"/>
</svg>
