<svg width="62" height="87" viewBox="0 0 62 87" fill="none" xmlns="http://www.w3.org/2000/svg">
<path d="M0.992964 39.8061C0.331684 41.5699 0.848044 43.5596 2.28484 44.7784C5.00699 47.5025 10.6053 57.3362 13.3765 64.2656C15.2676 68.9918 19.42 73.6305 22.5704 76.6908C23.9263 78.0252 24.6874 79.8491 24.6835 81.752V82.2735C24.6835 84.6366 26.5988 86.5519 28.9619 86.5519H51.7783C54.1414 86.5519 56.0567 84.6366 56.0567 82.2735V77.8926C56.0437 77.5303 56.1814 77.1785 56.4373 76.9219C61.7008 72.1089 61.7609 64.0743 61.7609 63.7349V41.1593C61.8137 38.1055 59.5113 35.5237 56.4719 35.2287C55.3295 35.1536 54.1911 35.4245 53.2047 36.0055V33.788C53.2164 31.733 52.1158 29.8327 50.3272 28.8202C48.5392 27.8077 46.3432 27.8417 44.5872 28.9096C44.4044 26.9859 43.2489 25.2899 41.5262 24.4158C39.8028 23.5417 37.7524 23.6103 36.0917 24.5986V22.2368C39.6312 20.2281 41.8115 16.4667 41.7965 12.3972C41.7965 6.09647 36.6884 0.989014 30.3876 0.989014C24.0868 0.989014 18.9794 6.09647 18.9794 12.3972C18.9644 16.4667 21.1447 20.2281 24.6835 22.2368V45.1962C24.724 46.8797 24.4948 48.5581 24.0046 50.1692C23.8518 50.645 23.4621 51.008 22.9764 51.1275C22.5195 51.243 22.0351 51.1157 21.693 50.7906C20.5794 49.7285 19.5897 48.543 18.7444 47.257C16.2696 43.5551 10.0426 36.64 6.14481 36.64C3.95534 36.5943 1.94147 37.832 0.992964 39.8061ZM21.8314 12.3972C21.8314 7.67166 25.662 3.84107 30.3876 3.84107C35.1132 3.84107 38.9438 7.67166 38.9438 12.3972C38.9575 14.8374 37.9182 17.1646 36.0917 18.7835V12.3972C36.0917 9.24685 33.538 6.69312 30.3876 6.69312C27.2372 6.69312 24.6835 9.24685 24.6835 12.3972V18.7835C22.8576 17.1646 21.8177 14.8374 21.8314 12.3972ZM16.3669 48.8401C17.3337 50.3062 18.4643 51.6575 19.7366 52.8685C20.7857 53.8607 22.2695 54.2478 23.6697 53.894C25.0967 53.5382 26.2424 52.4768 26.7071 51.0818C27.2973 49.1769 27.5773 47.1898 27.5355 45.1962V12.3972C27.5355 10.822 28.8124 9.54518 30.3876 9.54518C31.9628 9.54518 33.2397 10.822 33.2397 12.3972V42.3441C33.2397 43.132 33.8781 43.7705 34.666 43.7705C35.4533 43.7705 36.0917 43.132 36.0917 42.3441V29.5102C36.0917 27.935 37.3692 26.6582 38.9438 26.6582C40.519 26.6582 41.7965 27.935 41.7965 29.5102V42.3441C41.7965 43.132 42.4349 43.7705 43.2222 43.7705C44.0101 43.7705 44.6485 43.132 44.6485 42.3441V33.788C44.6485 32.2128 45.9254 30.9359 47.5006 30.9359C49.0758 30.9359 50.3526 32.2128 50.3526 33.788V43.7705C50.3526 44.5577 50.9911 45.1962 51.7783 45.1962C52.5663 45.1962 53.2047 44.5577 53.2047 43.7705V40.9184C53.2027 40.1618 53.5043 39.4359 54.0416 38.9033C54.6297 38.3203 55.4399 38.0181 56.2663 38.0736C57.8069 38.2746 58.9467 39.6063 58.9088 41.1593V63.7349C58.9088 63.8047 58.8363 70.8653 54.5109 74.8186C53.6656 75.6157 53.1916 76.7307 53.2047 77.8926V82.2735C53.2047 83.0615 52.5663 83.6999 51.7783 83.6999H28.9619C28.174 83.6999 27.5355 83.0615 27.5355 82.2735V81.752C27.5375 79.0788 26.4637 76.5172 24.5568 74.6443C22.1409 72.2989 17.82 67.6908 16.0261 63.2048C13.0912 55.872 7.28459 45.7452 4.30132 42.7619C3.62242 42.0837 3.39524 41.4557 3.62633 40.8969C4.14335 40.0012 5.11079 39.4614 6.14481 39.4921C8.08295 39.4921 13.3379 44.2966 16.3669 48.8401Z" fill="#003399"/>
<path d="M54.631 62.3086C55.4189 62.3086 56.0574 61.6702 56.0574 60.8823V52.3261C56.0574 51.5388 55.4189 50.9004 54.631 50.9004C53.8438 50.9004 53.2053 51.5388 53.2053 52.3261V60.8823C53.2053 61.6702 53.8438 62.3086 54.631 62.3086Z" fill="#003399"/>
<path d="M53.2025 70.8648C53.5805 70.8648 53.9434 70.7147 54.2104 70.447C55.2953 69.443 55.9553 68.0617 56.0545 66.5864C56.0532 65.8161 55.4331 65.1901 54.6628 65.1809C53.884 65.1659 53.2358 65.7756 53.2025 66.5538C53.0954 67.2777 52.739 67.9416 52.1939 68.4305C51.7866 68.8385 51.6645 69.4515 51.8851 69.9842C52.1058 70.5175 52.6254 70.8648 53.2025 70.8648Z" fill="#003399"/>
<path d="M31.8114 80.8489H33.2371C34.025 80.8489 34.6634 80.2104 34.6634 79.4225C34.6634 78.6353 34.025 77.9968 33.2371 77.9968H31.8114C31.0234 77.9968 30.385 78.6353 30.385 79.4225C30.385 80.2104 31.0234 80.8489 31.8114 80.8489Z" fill="#003399"/>
<path d="M38.9423 80.8489H48.9248C49.7127 80.8489 50.3512 80.2104 50.3512 79.4225C50.3512 78.6353 49.7127 77.9968 48.9248 77.9968H38.9423C38.155 77.9968 37.5166 78.6353 37.5166 79.4225C37.5166 80.2104 38.155 80.8489 38.9423 80.8489Z" fill="#003399"/>
<path d="M18.9747 24.5748C19.544 24.5748 20.0584 24.2373 20.2842 23.7151C20.5101 23.1928 20.4043 22.5864 20.0146 22.1719C15.0736 16.9495 14.8053 8.86206 19.3899 3.32376C19.7287 2.93273 19.8292 2.38896 19.653 1.90263C19.4761 1.41629 19.0498 1.06379 18.5387 0.981534C18.0275 0.899282 17.5125 1.10034 17.192 1.50703C11.6928 8.15247 12.0114 17.8556 17.9355 24.1257C18.2051 24.4123 18.5811 24.5748 18.9747 24.5748Z" fill="#003399"/>
<path d="M43.7 20.7971C44.0362 20.9694 44.4279 21.0014 44.7875 20.8852C45.1479 20.769 45.4469 20.5151 45.6192 20.1782C48.7369 14.1073 47.9353 6.76202 43.5812 1.50703C43.2613 1.10034 42.7456 0.899282 42.2345 0.981534C41.724 1.06379 41.2977 1.41629 41.1208 1.90263C40.9439 2.38896 41.0444 2.93273 41.3839 3.32376C45.0121 7.70139 45.6799 13.8207 43.0825 18.8779C42.7228 19.5783 42.9995 20.4374 43.7 20.7971Z" fill="#003399"/>
</svg>
