<svg width="79" height="79" viewBox="0 0 79 79" fill="none" xmlns="http://www.w3.org/2000/svg">
<path d="M30.3211 55.1117H9.64341V50.5884C9.64341 48.0903 7.61829 46.0652 5.12017 46.0652C2.62204 46.0652 0.596924 48.0903 0.596924 50.5884V77.0817C0.596924 77.7954 1.17558 78.374 1.88928 78.374H19.9822C22.1141 78.3834 23.8501 76.6628 23.8596 74.5309C23.864 73.5624 23.5041 72.6277 22.8513 71.9123C24.1953 70.4513 24.1953 68.2039 22.8513 66.7428C23.8236 65.7019 24.1239 64.2006 23.6267 62.8658H30.3211C32.4624 62.8658 34.1982 61.13 34.1982 58.9887C34.1982 56.8475 32.4624 55.1117 30.3211 55.1117ZM19.9822 75.7893H14.8128C14.0991 75.7893 13.5205 75.2107 13.5205 74.497C13.5205 73.7833 14.0991 73.2046 14.8128 73.2046H19.9822C20.6959 73.2046 21.2746 73.7833 21.2746 74.497C21.2746 75.2107 20.6961 75.7893 19.9822 75.7893ZM19.9822 70.6199H14.8128C14.0991 70.6199 13.5205 70.0413 13.5205 69.3276C13.5205 68.6139 14.0991 68.0352 14.8128 68.0352H19.9822C20.6959 68.0352 21.2746 68.6139 21.2746 69.3276C21.2746 70.0413 20.6961 70.6199 19.9822 70.6199ZM19.9822 65.4505H14.8128C14.0991 65.4505 13.5205 64.8718 13.5205 64.1581C13.5205 63.4444 14.0991 62.8658 14.8128 62.8658H19.9822C20.6959 62.8658 21.2746 63.4444 21.2746 64.1581C21.2746 64.8718 20.6961 65.4505 19.9822 65.4505ZM30.3211 60.2811H14.8128C12.6809 60.2717 10.945 61.9923 10.9354 64.1242C10.9311 65.0927 11.291 66.0274 11.9438 66.7428C10.5997 68.2039 10.5997 70.4513 11.9438 71.9123C10.9715 72.9533 10.6712 74.4545 11.1684 75.7893H3.18163V50.5884C3.18163 49.5179 4.04961 48.6499 5.12017 48.6499C6.19072 48.6499 7.0587 49.5179 7.0587 50.5884V56.404C7.0587 57.1177 7.63735 57.6964 8.35105 57.6964H30.3211C31.0348 57.6964 31.6134 58.275 31.6134 58.9887C31.6134 59.7024 31.0349 60.2811 30.3211 60.2811Z" fill="#003399"/>
<path d="M76.8487 0.832069H58.7557C56.6238 0.8227 54.8878 2.54331 54.8783 4.67521C54.874 5.64367 55.2339 6.57836 55.8867 7.29384C54.5426 8.75485 54.5426 11.0023 55.8867 12.4633C54.9143 13.5043 54.614 15.0055 55.1113 16.3403H48.4169C46.2756 16.3403 44.5398 18.0761 44.5398 20.2174C44.5398 22.3587 46.2756 24.0945 48.4169 24.0945H69.0945V28.6177C69.0945 31.1158 71.1197 33.1409 73.6178 33.1409C76.1159 33.1409 78.141 31.1158 78.141 28.6177V2.12442C78.141 1.41072 77.5625 0.832069 76.8487 0.832069ZM58.7557 3.41678H63.9251C64.6388 3.41678 65.2175 3.99543 65.2175 4.70913C65.2175 5.42284 64.6388 6.00149 63.9251 6.00149H58.7557C58.042 6.00149 57.4633 5.42284 57.4633 4.70913C57.4633 3.99543 58.042 3.41678 58.7557 3.41678ZM58.7557 8.5862H63.9251C64.6388 8.5862 65.2175 9.16485 65.2175 9.87855C65.2175 10.5923 64.6388 11.1709 63.9251 11.1709H58.7557C58.042 11.1709 57.4633 10.5923 57.4633 9.87855C57.4633 9.16485 58.042 8.5862 58.7557 8.5862ZM58.7557 13.7556H63.9251C64.6388 13.7556 65.2175 14.3343 65.2175 15.048C65.2175 15.7617 64.6388 16.3403 63.9251 16.3403H58.7557C58.042 16.3403 57.4633 15.7617 57.4633 15.048C57.4633 14.3343 58.042 13.7556 58.7557 13.7556ZM75.5563 28.6177C75.5563 29.6883 74.6883 30.5562 73.6178 30.5562C72.5472 30.5562 71.6793 29.6883 71.6793 28.6177V22.8021C71.6793 22.0884 71.1006 21.5097 70.3869 21.5097H48.4169C47.7032 21.5097 47.1245 20.9311 47.1245 20.2174C47.1245 19.5037 47.7032 18.925 48.4169 18.925H63.9251C66.057 18.9344 67.793 17.2138 67.8025 15.0819C67.8069 14.1134 67.447 13.1787 66.7942 12.4633C68.1382 11.0023 68.1382 8.75485 66.7942 7.29384C67.7665 6.25285 68.0668 4.75162 67.5696 3.41678H75.5563V28.6177Z" fill="#003399"/>
<path d="M39.3685 33.1404C35.7998 33.1404 32.9067 36.0335 32.9067 39.6022C32.9109 43.1691 35.8016 46.0597 39.3685 46.0639C42.9372 46.0639 45.8303 43.1708 45.8303 39.6022C45.8303 36.0335 42.9374 33.1404 39.3685 33.1404ZM39.3685 43.4792C37.2272 43.4792 35.4914 41.7434 35.4914 39.6022C35.4914 37.4609 37.2272 35.7251 39.3685 35.7251C41.5098 35.7251 43.2456 37.4609 43.2456 39.6022C43.2456 41.7434 41.5098 43.4792 39.3685 43.4792Z" fill="#003399"/>
<path d="M68.7559 38.7374L68.3682 38.3018C53.9548 22.286 29.2868 20.9872 13.271 35.4008C12.2537 36.3163 11.2854 37.2846 10.3699 38.3018L9.98224 38.7374C9.53977 39.2288 9.53977 39.975 9.98224 40.4665L10.3699 40.9021C24.7836 56.9179 49.4514 58.2167 65.4672 43.8031C66.4845 42.8876 67.4528 41.9193 68.3682 40.9021L68.7559 40.4665C69.1984 39.9751 69.1984 39.2289 68.7559 38.7374ZM12.682 39.602C17.259 34.6878 23.1035 31.132 29.5718 29.3264C23.8975 34.7062 23.6586 43.6671 29.0383 49.3415C29.2113 49.524 29.3892 49.7019 29.5718 49.8749C23.1038 48.0699 17.2593 44.5152 12.682 39.602ZM39.3691 51.2331C32.9454 51.2331 27.7379 46.0256 27.7379 39.602C27.7379 33.1781 32.9453 27.9708 39.3691 27.9708C45.7895 27.9785 50.9925 33.1815 51.0003 39.602C51.0003 46.0258 45.7929 51.2331 39.3691 51.2331ZM49.1664 49.8775C54.8407 44.4979 55.0796 35.5369 49.6999 29.8624C49.5268 29.6799 49.349 29.502 49.1664 29.329C55.6345 31.134 61.4789 34.6887 66.0562 39.602C61.4792 44.5161 55.6347 48.0719 49.1664 49.8775Z" fill="#003399"/>
</svg>
